<svg id="Layer_1" data-name="Layer 1" xmlns="http://www.w3.org/2000/svg" viewBox="0 0 512 512"><defs><style>.cls-1{fill:#d9e4e8;}.cls-2{opacity:0.14;}.cls-3{fill:#17292d;}.cls-4{fill:#79d3d3;}.cls-5{fill:#141f38;}</style></defs><title>text-filled</title><path class="cls-1" d="M115.2,499.2A51.26,51.26,0,0,1,64,448V64a51.26,51.26,0,0,1,51.2-51.2H302L448,158.9V448a51.26,51.26,0,0,1-51.2,51.2Z"/><g class="cls-2"><path class="cls-3" d="M435.2,128h0L346.72,39.51A64,64,0,0,0,294.4,102.4V128a64,64,0,0,0,64,64h76.8Z"/></g><path class="cls-4" d="M358.4,153.6a51.26,51.26,0,0,1-51.2-51.2V18.12L442.34,153.6Z"/><path class="cls-5" d="M307.34,0H115.2a64,64,0,0,0-64,64V448a64,64,0,0,0,64,64H396.8a64,64,0,0,0,64-64V153.6ZM411.49,140.8H358.4A38.44,38.44,0,0,1,320,102.4V49.08ZM435.2,448a38.44,38.44,0,0,1-38.4,38.4H115.2A38.44,38.44,0,0,1,76.8,448V64a38.44,38.44,0,0,1,38.4-38.4H294.4v76.8a64,64,0,0,0,64,64h76.8Z"/><path class="cls-5" d="M345.6,371.2H166.4a12.8,12.8,0,1,0,0,25.6H345.6a12.8,12.8,0,1,0,0-25.6Z"/><path class="cls-5" d="M345.6,320H166.4a12.8,12.8,0,1,0,0,25.6H345.6a12.8,12.8,0,1,0,0-25.6Z"/><path class="cls-5" d="M166.4,294.4h76.8a12.8,12.8,0,0,0,0-25.6H166.4a12.8,12.8,0,1,0,0,25.6Z"/></svg>