<svg id="Layer_1" data-name="Layer 1" xmlns="http://www.w3.org/2000/svg" viewBox="0 0 512 512"><defs><style>.cls-1{fill:#d9e4e8;}.cls-2{opacity:0.14;}.cls-3{fill:#17292d;}.cls-4{fill:#79d3d3;}.cls-5{fill:#141f38;}</style></defs><title>pdf-filled</title><path class="cls-1" d="M115.2,499.2A51.26,51.26,0,0,1,64,448V64a51.26,51.26,0,0,1,51.2-51.2H302L448,158.9V448a51.26,51.26,0,0,1-51.2,51.2Z"/><g class="cls-2"><path class="cls-3" d="M435.2,128h0L346.72,39.51A64,64,0,0,0,294.4,102.4V128a64,64,0,0,0,64,64h76.8Z"/></g><path class="cls-4" d="M358.4,153.6a51.26,51.26,0,0,1-51.2-51.2V18.12L442.34,153.6Z"/><path class="cls-5" d="M307.34,0H115.2a64,64,0,0,0-64,64V448a64,64,0,0,0,64,64H396.8a64,64,0,0,0,64-64V153.6ZM411.49,140.8H358.4A38.44,38.44,0,0,1,320,102.4V49.08ZM435.2,448a38.44,38.44,0,0,1-38.4,38.4H115.2A38.44,38.44,0,0,1,76.8,448V64a38.44,38.44,0,0,1,38.4-38.4H294.4v76.8a64,64,0,0,0,64,64h76.8Z"/><path class="cls-5" d="M345.54,363.59c-.32-3.22-3.44-19.27-30.71-18.55-19.26.48-28.06,1.53-31.51,2.09-4.12-4.44-18.38-20.24-24.57-33.07,1.72-5.37,8.42-27.35,8.07-42.22-.31-13.35-2.79-28.64-19.3-28.64h-.28c-4.82.05-8.61,1.59-11.29,4.57-4.27,4.77-5.52,12.63-4.17,26.27,1.29,13,7,27.66,8.64,31.73-1.33,4.12-6.38,19.52-12.71,34.67-5.94,14.25-10.4,23.15-11.91,26-5.23,1.88-26.15,9.79-36.24,19.41-9.39,8.95-17.92,19.59-10,30.58,2.64,3.66,7.57,5.88,13.2,5.93h.19c10.14,0,20.91-6.66,29.58-18.31,13.08-17.57,20.11-29.54,22.18-33.21,5-1.39,23.52-6.57,29.81-8.12,5.38-1.33,11.68-2.47,14.54-3,4.94,4.75,24.38,22,43.78,21.35,9-.34,15.51-2.71,19.32-7.06a13.94,13.94,0,0,0,3.43-10.45ZM183,408.9a4.52,4.52,0,0,1-3.89-.4h0c-1.11-.68-1.21-1.21-1-2.08,1.45-6.47,17.22-17.37,27.15-22.59C199.51,393.54,190.33,406.81,183,408.9Zm63.65-154.55c1.1,0,3.69,0,3.8,9.76.07,6.54-2.47,17.16-4.46,24.41a70.75,70.75,0,0,1-3.53-20.79C242.45,257.91,245,254.35,246.63,254.35Zm8.78,99c-5.41,1.36-9.73,2.73-13,3.9l2.3-5.28c3.32-7.61,6.64-16.77,8.74-22.8A203.68,203.68,0,0,0,269,350.31C265.87,350.9,261.42,351.86,255.42,353.36ZM324.1,366.9c-5.76,2.44-18.61-1.26-29.49-9.64,11.39-1.47,26.14-1.85,30.94,2.14a3.39,3.39,0,0,1,1.36,2.79C326.91,364.63,326,366.08,324.1,366.9Z"/></svg>