<svg id="Layer_1" data-name="Layer 1" xmlns="http://www.w3.org/2000/svg" viewBox="0 0 512 512"><defs><style>.cls-1{fill:#d9e4e8;}.cls-2{opacity:0.14;}.cls-3{fill:#17292d;}.cls-4{fill:#79d3d3;}.cls-5{fill:#fff;}.cls-6{fill:#141f38;}</style></defs><title>video-filled</title><path class="cls-1" d="M115.2,499.2A51.26,51.26,0,0,1,64,448V64a51.26,51.26,0,0,1,51.2-51.2H302L448,158.9V448a51.26,51.26,0,0,1-51.2,51.2Z"/><g class="cls-2"><path class="cls-3" d="M435.2,128h0L346.72,39.51A64,64,0,0,0,294.4,102.4V128a64,64,0,0,0,64,64h76.8Z"/></g><path class="cls-4" d="M358.4,153.6a51.26,51.26,0,0,1-51.2-51.2V18.12L442.34,153.6Z"/><rect class="cls-5" x="166.4" y="256" width="179.2" height="153.6" rx="19.2" ry="19.2"/><path class="cls-6" d="M307.34,0H115.2a64,64,0,0,0-64,64V448a64,64,0,0,0,64,64H396.8a64,64,0,0,0,64-64V153.6ZM411.49,140.8H358.4A38.44,38.44,0,0,1,320,102.4V49.08ZM435.2,448a38.44,38.44,0,0,1-38.4,38.4H115.2A38.44,38.44,0,0,1,76.8,448V64a38.44,38.44,0,0,1,38.4-38.4H294.4v76.8a64,64,0,0,0,64,64h76.8Z"/><path class="cls-6" d="M326.4,243.2H185.6a32,32,0,0,0-32,32V390.4a32,32,0,0,0,32,32H326.4a32,32,0,0,0,32-32V275.2A32,32,0,0,0,326.4,243.2Zm6.4,147.2a6.41,6.41,0,0,1-6.4,6.4H185.6a6.41,6.41,0,0,1-6.4-6.4V275.2a6.41,6.41,0,0,1,6.4-6.4H326.4a6.41,6.41,0,0,1,6.4,6.4Z"/><path class="cls-6" d="M278.31,327.47,239,307.84a6,6,0,0,0-8.63,5.33v39.27a6,6,0,0,0,8.63,5.33l39.28-19.63A6,6,0,0,0,278.31,327.47Z"/></svg>