<svg id="Layer_1" data-name="Layer 1" xmlns="http://www.w3.org/2000/svg" viewBox="0 0 512 512"><defs><style>.cls-1{fill:#d9e4e8;}.cls-2{opacity:0.14;}.cls-3{fill:#17292d;}.cls-4{fill:#79d3d3;}.cls-5{fill:#141f38;}</style></defs><title>zip-filled</title><path class="cls-1" d="M115.2,499.2A51.26,51.26,0,0,1,64,448V64a51.26,51.26,0,0,1,51.2-51.2H302L448,158.9V448a51.26,51.26,0,0,1-51.2,51.2Z"/><g class="cls-2"><path class="cls-3" d="M435.2,128h0L346.72,39.51A64,64,0,0,0,294.4,102.4V128a64,64,0,0,0,64,64h76.8Z"/></g><path class="cls-4" d="M358.4,153.6a51.26,51.26,0,0,1-51.2-51.2V18.12L442.34,153.6Z"/><path class="cls-5" d="M307.34,0H115.2a64,64,0,0,0-64,64V448a64,64,0,0,0,64,64H396.8a64,64,0,0,0,64-64V153.6ZM411.49,140.8H358.4A38.44,38.44,0,0,1,320,102.4V49.08ZM435.2,448a38.44,38.44,0,0,1-38.4,38.4h-192V460.8H179.2v25.6h-64A38.44,38.44,0,0,1,76.8,448V64a38.44,38.44,0,0,1,38.4-38.4h38.4V51.2h25.6V25.6H294.4v76.8a64,64,0,0,0,64,64h76.8Z"/><rect class="cls-5" x="179.2" y="51.2" width="25.6" height="25.6"/><rect class="cls-5" x="153.6" y="76.8" width="25.6" height="25.6"/><rect class="cls-5" x="179.2" y="102.4" width="25.6" height="25.6"/><rect class="cls-5" x="153.6" y="128" width="25.6" height="25.6"/><rect class="cls-5" x="179.2" y="153.6" width="25.6" height="25.6"/><rect class="cls-5" x="153.6" y="179.2" width="25.6" height="25.6"/><rect class="cls-5" x="179.2" y="204.8" width="25.6" height="25.6"/><rect class="cls-5" x="153.6" y="230.4" width="25.6" height="25.6"/><rect class="cls-5" x="179.2" y="256" width="25.6" height="25.6"/><rect class="cls-5" x="153.6" y="281.6" width="25.6" height="25.6"/><rect class="cls-5" x="179.2" y="307.2" width="25.6" height="25.6"/><rect class="cls-5" x="153.6" y="332.8" width="25.6" height="25.6"/><rect class="cls-5" x="179.2" y="358.4" width="25.6" height="25.6"/><rect class="cls-5" x="153.6" y="384" width="25.6" height="25.6"/><rect class="cls-5" x="179.2" y="409.6" width="25.6" height="25.6"/><rect class="cls-5" x="153.6" y="435.2" width="25.6" height="25.6"/></svg>